<mxfile host="app.diagrams.net" agent="Mozilla/5.0 (Windows NT 10.0; Win64; x64) AppleWebKit/537.36 (KHTML, like Gecko) Chrome/126.0.0.0 Safari/537.36" version="24.7.4">
  <diagram name="Page-1" id="t-uCVPQujYkY3I6oDz1f">
    <mxGraphModel dx="1434" dy="738" grid="1" gridSize="10" guides="1" tooltips="1" connect="1" arrows="1" fold="1" page="1" pageScale="1" pageWidth="1100" pageHeight="850" math="0" shadow="0">
      <root>
        <mxCell id="0" />
        <mxCell id="1" parent="0" />
        <mxCell id="LY-ArOaM2LhRFUvLQoWM-6" value="" style="group" vertex="1" connectable="0" parent="1">
          <mxGeometry x="470" y="290" width="110" height="90" as="geometry" />
        </mxCell>
        <mxCell id="LY-ArOaM2LhRFUvLQoWM-2" value="&lt;span style=&quot;text-wrap: wrap;&quot;&gt;Flight Controller&lt;/span&gt;" style="text;html=1;align=center;verticalAlign=middle;resizable=0;points=[];autosize=1;strokeColor=none;fillColor=none;" vertex="1" parent="LY-ArOaM2LhRFUvLQoWM-6">
          <mxGeometry width="110" height="30" as="geometry" />
        </mxCell>
        <mxCell id="LY-ArOaM2LhRFUvLQoWM-7" style="edgeStyle=orthogonalEdgeStyle;rounded=0;orthogonalLoop=1;jettySize=auto;html=1;entryX=0;entryY=0.175;entryDx=0;entryDy=0;entryPerimeter=0;" edge="1" parent="LY-ArOaM2LhRFUvLQoWM-6" target="LY-ArOaM2LhRFUvLQoWM-11">
          <mxGeometry relative="1" as="geometry">
            <mxPoint x="217.5" y="60.31034482758628" as="targetPoint" />
            <mxPoint x="97.5" y="40" as="sourcePoint" />
          </mxGeometry>
        </mxCell>
        <mxCell id="LY-ArOaM2LhRFUvLQoWM-3" value="ArduPilot" style="rounded=0;whiteSpace=wrap;html=1;" vertex="1" parent="LY-ArOaM2LhRFUvLQoWM-6">
          <mxGeometry x="12.5" y="30" width="85" height="60" as="geometry" />
        </mxCell>
        <mxCell id="LY-ArOaM2LhRFUvLQoWM-5" style="edgeStyle=orthogonalEdgeStyle;rounded=0;orthogonalLoop=1;jettySize=auto;html=1;exitX=0.5;exitY=1;exitDx=0;exitDy=0;" edge="1" parent="LY-ArOaM2LhRFUvLQoWM-6" source="LY-ArOaM2LhRFUvLQoWM-3" target="LY-ArOaM2LhRFUvLQoWM-3">
          <mxGeometry relative="1" as="geometry" />
        </mxCell>
        <mxCell id="LY-ArOaM2LhRFUvLQoWM-15" value="" style="group" vertex="1" connectable="0" parent="1">
          <mxGeometry x="707.5" y="280" width="107.5" height="100" as="geometry" />
        </mxCell>
        <mxCell id="LY-ArOaM2LhRFUvLQoWM-11" value="SquirrelDefender" style="rounded=0;whiteSpace=wrap;html=1;" vertex="1" parent="LY-ArOaM2LhRFUvLQoWM-15">
          <mxGeometry y="40" width="107.5" height="60" as="geometry" />
        </mxCell>
        <mxCell id="LY-ArOaM2LhRFUvLQoWM-9" value="&lt;span style=&quot;text-wrap: wrap;&quot;&gt;Jetson&lt;/span&gt;&lt;div&gt;&lt;span style=&quot;text-wrap: wrap;&quot;&gt;Nano&lt;/span&gt;&lt;/div&gt;" style="text;html=1;align=center;verticalAlign=middle;resizable=0;points=[];autosize=1;strokeColor=none;fillColor=none;" vertex="1" parent="LY-ArOaM2LhRFUvLQoWM-15">
          <mxGeometry x="23.75" width="60" height="40" as="geometry" />
        </mxCell>
        <mxCell id="LY-ArOaM2LhRFUvLQoWM-16" value="" style="endArrow=classic;html=1;rounded=0;exitX=-0.015;exitY=0.823;exitDx=0;exitDy=0;exitPerimeter=0;" edge="1" parent="1" source="LY-ArOaM2LhRFUvLQoWM-11">
          <mxGeometry width="50" height="50" relative="1" as="geometry">
            <mxPoint x="647.5" y="420" as="sourcePoint" />
            <mxPoint x="567.5" y="370" as="targetPoint" />
          </mxGeometry>
        </mxCell>
        <mxCell id="LY-ArOaM2LhRFUvLQoWM-19" value="&lt;font style=&quot;font-size: 12px;&quot;&gt;Vehicle state info (imu, vel, acc, height, sensor readings etc)&lt;/font&gt;" style="text;html=1;align=center;verticalAlign=middle;whiteSpace=wrap;rounded=0;" vertex="1" parent="1">
          <mxGeometry x="567.5" y="280" width="140" height="50" as="geometry" />
        </mxCell>
        <mxCell id="LY-ArOaM2LhRFUvLQoWM-20" value="&lt;font style=&quot;font-size: 12px;&quot;&gt;Mavlink commands (mode changes, vel, pos, acc, attitude, etc)&lt;/font&gt;" style="text;html=1;align=center;verticalAlign=middle;whiteSpace=wrap;rounded=0;" vertex="1" parent="1">
          <mxGeometry x="567.5" y="370" width="140" height="50" as="geometry" />
        </mxCell>
        <mxCell id="LY-ArOaM2LhRFUvLQoWM-32" style="edgeStyle=orthogonalEdgeStyle;rounded=0;orthogonalLoop=1;jettySize=auto;html=1;entryX=0;entryY=1;entryDx=0;entryDy=0;" edge="1" parent="1" source="LY-ArOaM2LhRFUvLQoWM-21" target="LY-ArOaM2LhRFUvLQoWM-3">
          <mxGeometry relative="1" as="geometry" />
        </mxCell>
        <mxCell id="LY-ArOaM2LhRFUvLQoWM-21" value="rangefinder" style="ellipse;whiteSpace=wrap;html=1;" vertex="1" parent="1">
          <mxGeometry x="340" y="420" width="60" height="40" as="geometry" />
        </mxCell>
        <mxCell id="LY-ArOaM2LhRFUvLQoWM-22" value="optical flow" style="ellipse;whiteSpace=wrap;html=1;" vertex="1" parent="1">
          <mxGeometry x="390" y="460" width="60" height="40" as="geometry" />
        </mxCell>
        <mxCell id="LY-ArOaM2LhRFUvLQoWM-23" value="gps" style="ellipse;whiteSpace=wrap;html=1;" vertex="1" parent="1">
          <mxGeometry x="460" y="480" width="60" height="40" as="geometry" />
        </mxCell>
        <mxCell id="LY-ArOaM2LhRFUvLQoWM-31" style="edgeStyle=orthogonalEdgeStyle;rounded=0;orthogonalLoop=1;jettySize=auto;html=1;exitX=1;exitY=0.5;exitDx=0;exitDy=0;" edge="1" parent="1" source="LY-ArOaM2LhRFUvLQoWM-24">
          <mxGeometry relative="1" as="geometry">
            <mxPoint x="480" y="370" as="targetPoint" />
          </mxGeometry>
        </mxCell>
        <mxCell id="LY-ArOaM2LhRFUvLQoWM-24" value="imu" style="ellipse;whiteSpace=wrap;html=1;" vertex="1" parent="1">
          <mxGeometry x="320" y="370" width="60" height="40" as="geometry" />
        </mxCell>
        <mxCell id="LY-ArOaM2LhRFUvLQoWM-30" style="edgeStyle=orthogonalEdgeStyle;rounded=0;orthogonalLoop=1;jettySize=auto;html=1;exitX=1;exitY=0.5;exitDx=0;exitDy=0;" edge="1" parent="1" source="LY-ArOaM2LhRFUvLQoWM-25">
          <mxGeometry relative="1" as="geometry">
            <mxPoint x="480" y="350" as="targetPoint" />
          </mxGeometry>
        </mxCell>
        <mxCell id="LY-ArOaM2LhRFUvLQoWM-25" value="gyro" style="ellipse;whiteSpace=wrap;html=1;" vertex="1" parent="1">
          <mxGeometry x="330" y="320" width="60" height="40" as="geometry" />
        </mxCell>
        <mxCell id="LY-ArOaM2LhRFUvLQoWM-29" style="edgeStyle=orthogonalEdgeStyle;rounded=0;orthogonalLoop=1;jettySize=auto;html=1;entryX=0;entryY=0.25;entryDx=0;entryDy=0;" edge="1" parent="1" source="LY-ArOaM2LhRFUvLQoWM-26" target="LY-ArOaM2LhRFUvLQoWM-3">
          <mxGeometry relative="1" as="geometry" />
        </mxCell>
        <mxCell id="LY-ArOaM2LhRFUvLQoWM-26" value="mag" style="ellipse;whiteSpace=wrap;html=1;" vertex="1" parent="1">
          <mxGeometry x="360" y="270" width="60" height="40" as="geometry" />
        </mxCell>
        <mxCell id="LY-ArOaM2LhRFUvLQoWM-27" value="compass" style="ellipse;whiteSpace=wrap;html=1;" vertex="1" parent="1">
          <mxGeometry x="530" y="470" width="60" height="40" as="geometry" />
        </mxCell>
        <mxCell id="LY-ArOaM2LhRFUvLQoWM-33" style="edgeStyle=orthogonalEdgeStyle;rounded=0;orthogonalLoop=1;jettySize=auto;html=1;entryX=0.185;entryY=1.028;entryDx=0;entryDy=0;entryPerimeter=0;" edge="1" parent="1" source="LY-ArOaM2LhRFUvLQoWM-22" target="LY-ArOaM2LhRFUvLQoWM-3">
          <mxGeometry relative="1" as="geometry">
            <Array as="points">
              <mxPoint x="498" y="460" />
            </Array>
          </mxGeometry>
        </mxCell>
        <mxCell id="LY-ArOaM2LhRFUvLQoWM-34" style="edgeStyle=orthogonalEdgeStyle;rounded=0;orthogonalLoop=1;jettySize=auto;html=1;entryX=0.429;entryY=0.971;entryDx=0;entryDy=0;entryPerimeter=0;" edge="1" parent="1" source="LY-ArOaM2LhRFUvLQoWM-23" target="LY-ArOaM2LhRFUvLQoWM-3">
          <mxGeometry relative="1" as="geometry">
            <Array as="points">
              <mxPoint x="510" y="420" />
              <mxPoint x="519" y="420" />
            </Array>
          </mxGeometry>
        </mxCell>
        <mxCell id="LY-ArOaM2LhRFUvLQoWM-35" style="edgeStyle=orthogonalEdgeStyle;rounded=0;orthogonalLoop=1;jettySize=auto;html=1;entryX=0.631;entryY=1.028;entryDx=0;entryDy=0;entryPerimeter=0;" edge="1" parent="1" source="LY-ArOaM2LhRFUvLQoWM-27" target="LY-ArOaM2LhRFUvLQoWM-3">
          <mxGeometry relative="1" as="geometry" />
        </mxCell>
        <mxCell id="LY-ArOaM2LhRFUvLQoWM-37" style="edgeStyle=orthogonalEdgeStyle;rounded=0;orthogonalLoop=1;jettySize=auto;html=1;" edge="1" parent="1" source="LY-ArOaM2LhRFUvLQoWM-36">
          <mxGeometry relative="1" as="geometry">
            <mxPoint x="760" y="380" as="targetPoint" />
          </mxGeometry>
        </mxCell>
        <mxCell id="LY-ArOaM2LhRFUvLQoWM-36" value="camera" style="ellipse;whiteSpace=wrap;html=1;" vertex="1" parent="1">
          <mxGeometry x="731.25" y="440" width="60" height="40" as="geometry" />
        </mxCell>
        <mxCell id="LY-ArOaM2LhRFUvLQoWM-38" value="&lt;font style=&quot;font-size: 36px;&quot;&gt;System Overview&lt;/font&gt;" style="text;html=1;align=center;verticalAlign=middle;whiteSpace=wrap;rounded=0;" vertex="1" parent="1">
          <mxGeometry y="10" width="290" height="40" as="geometry" />
        </mxCell>
      </root>
    </mxGraphModel>
  </diagram>
</mxfile>
